<svg width="41" height="40" viewBox="0 0 41 40" fill="none" xmlns="http://www.w3.org/2000/svg">
<path d="M13 10C12.6685 10 12.3505 10.1317 12.1161 10.3661C11.8817 10.6005 11.75 10.9185 11.75 11.25C11.75 11.5815 11.8817 11.8995 12.1161 12.1339C12.3505 12.3683 12.6685 12.5 13 12.5H28C28.3315 12.5 28.6495 12.3683 28.8839 12.1339C29.1183 11.8995 29.25 11.5815 29.25 11.25C29.25 10.9185 29.1183 10.6005 28.8839 10.3661C28.6495 10.1317 28.3315 10 28 10H13ZM11.75 16.25C11.75 15.9185 11.8817 15.6005 12.1161 15.3661C12.3505 15.1317 12.6685 15 13 15H28C28.3315 15 28.6495 15.1317 28.8839 15.3661C29.1183 15.6005 29.25 15.9185 29.25 16.25C29.25 16.5815 29.1183 16.8995 28.8839 17.1339C28.6495 17.3683 28.3315 17.5 28 17.5H13C12.6685 17.5 12.3505 17.3683 12.1161 17.1339C11.8817 16.8995 11.75 16.5815 11.75 16.25ZM13 20C12.6685 20 12.3505 20.1317 12.1161 20.3661C11.8817 20.6005 11.75 20.9185 11.75 21.25C11.75 21.5815 11.8817 21.8995 12.1161 22.1339C12.3505 22.3683 12.6685 22.5 13 22.5H28C28.3315 22.5 28.6495 22.3683 28.8839 22.1339C29.1183 21.8995 29.25 21.5815 29.25 21.25C29.25 20.9185 29.1183 20.6005 28.8839 20.3661C28.6495 20.1317 28.3315 20 28 20H13ZM13 25C12.6685 25 12.3505 25.1317 12.1161 25.3661C11.8817 25.6005 11.75 25.9185 11.75 26.25C11.75 26.5815 11.8817 26.8995 12.1161 27.1339C12.3505 27.3683 12.6685 27.5 13 27.5H20.5C20.8315 27.5 21.1495 27.3683 21.3839 27.1339C21.6183 26.8995 21.75 26.5815 21.75 26.25C21.75 25.9185 21.6183 25.6005 21.3839 25.3661C21.1495 25.1317 20.8315 25 20.5 25H13Z" fill="#6247AA"/>
<path d="M5.5 5C5.5 3.67392 6.02678 2.40215 6.96447 1.46447C7.90215 0.526784 9.17392 0 10.5 0L30.5 0C31.8261 0 33.0979 0.526784 34.0355 1.46447C34.9732 2.40215 35.5 3.67392 35.5 5V35C35.5 36.3261 34.9732 37.5979 34.0355 38.5355C33.0979 39.4732 31.8261 40 30.5 40H10.5C9.17392 40 7.90215 39.4732 6.96447 38.5355C6.02678 37.5979 5.5 36.3261 5.5 35V5ZM30.5 2.5H10.5C9.83696 2.5 9.20107 2.76339 8.73223 3.23223C8.26339 3.70107 8 4.33696 8 5V35C8 35.663 8.26339 36.2989 8.73223 36.7678C9.20107 37.2366 9.83696 37.5 10.5 37.5H30.5C31.163 37.5 31.7989 37.2366 32.2678 36.7678C32.7366 36.2989 33 35.663 33 35V5C33 4.33696 32.7366 3.70107 32.2678 3.23223C31.7989 2.76339 31.163 2.5 30.5 2.5Z" fill="#6247AA"/>
</svg>
