<svg width="28" height="28" viewBox="0 0 28 28" fill="none" xmlns="http://www.w3.org/2000/svg">
<rect x="1" y="1" width="26" height="26" rx="13" fill="#8372B4"/>
<path d="M9.32326 20.2045L9.3232 20.2045C9.12794 20.2432 8.93204 20.2786 8.73559 20.3108L8.73469 20.3109C8.3624 20.3705 8.1085 19.9894 8.24324 19.6722M9.32326 20.2045L12.0927 19.0613C12.7149 19.2272 13.3561 19.3108 14 19.31V19.56C14.0001 19.56 14.0002 19.56 14.0003 19.56C17.6959 19.5598 20.7509 16.9315 20.7509 13.6217C20.7509 10.3117 17.6958 7.68335 14 7.68335C10.3041 7.68335 7.24902 10.3117 7.24902 13.6217C7.24902 15.0841 7.85007 16.4203 8.83889 17.4504C8.77298 18.0207 8.62191 18.6279 8.43769 19.1627L8.4375 19.1627L8.43461 19.1723L8.43359 19.1757C8.37594 19.3434 8.31245 19.509 8.24324 19.6722M9.32326 20.2045C10.741 19.9231 11.6485 19.5558 12.1201 19.3267L9.32326 20.2045ZM8.24324 19.6722L8.47331 19.7699L8.24319 19.6723C8.24321 19.6723 8.24323 19.6722 8.24324 19.6722ZM9.85232 16.6096L9.85224 16.6095C9.03164 15.7866 8.56164 14.7415 8.56164 13.6217C8.56164 11.1948 10.8599 8.99597 14 8.99597C17.14 8.99597 19.4383 11.1948 19.4383 13.6217C19.4383 16.0493 17.14 18.2474 14 18.2474H13.9996C13.4484 18.2482 12.8995 18.1768 12.3669 18.0348C12.1143 17.9673 11.8457 17.9953 11.6125 18.1134C11.3541 18.2443 10.81 18.4864 9.93802 18.7172C10.04 18.3048 10.1132 17.8856 10.1571 17.4627H10.1571L10.1573 17.4607C10.1722 17.3051 10.1526 17.1482 10.0998 17.0011C10.0471 16.854 9.96262 16.7203 9.85232 16.6096Z" fill="#FBFAFF" stroke="#FBFAFF" stroke-width="0.5"/>
<rect x="1" y="1" width="26" height="26" rx="13" stroke="#EAC504" stroke-width="2"/>
</svg>
