<svg width="12" height="15" viewBox="0 0 12 15" fill="none" xmlns="http://www.w3.org/2000/svg">
<path d="M3.86898 10.8232H5.86898M0.535645 2.15658V12.8232C0.535645 13.1769 0.67612 13.516 0.926169 13.7661C1.17622 14.0161 1.51536 14.1566 1.86898 14.1566H9.86897C10.2226 14.1566 10.5617 14.0161 10.8118 13.7661C11.0618 13.516 11.2023 13.1769 11.2023 12.8232V5.05124C11.2023 4.87362 11.1668 4.69778 11.0979 4.53407C11.0289 4.37036 10.928 4.22207 10.801 4.09791L7.84097 1.20324C7.59188 0.959681 7.25736 0.823286 6.90898 0.823242H1.86898C1.51536 0.823242 1.17622 0.963718 0.926169 1.21377C0.67612 1.46382 0.535645 1.80295 0.535645 2.15658V2.15658ZM3.86898 8.15658H7.86897H3.86898Z" stroke="#6247AA" stroke-linecap="round" stroke-linejoin="round"/>
</svg>
