<svg width="41" height="41" viewBox="0 0 41 41" fill="none" xmlns="http://www.w3.org/2000/svg">
<g clip-path="url(#clip0_623_1603)">
<path d="M20.5004 10.2251L20.1091 10.3438L4.48414 15.5788L0.931641 16.7501L3.00039 17.4126V28.3501C2.25414 28.7838 1.75039 29.5751 1.75039 30.5001C1.75039 31.1631 2.01378 31.799 2.48262 32.2679C2.95146 32.7367 3.58735 33.0001 4.25039 33.0001C4.91343 33.0001 5.54932 32.7367 6.01816 32.2679C6.487 31.799 6.75039 31.1631 6.75039 30.5001C6.75039 29.5751 6.24664 28.7838 5.50039 28.3501V18.2751L8.00039 19.0938V25.5001C8.00039 26.5251 8.62539 27.3751 9.36789 27.9626C10.1104 28.5463 11.0329 28.9588 12.1404 29.3288C14.3579 30.0663 17.2804 30.5001 20.5004 30.5001C23.7204 30.5001 26.6429 30.0676 28.8604 29.3276C29.9679 28.9588 30.8904 28.5463 31.6329 27.9613C32.3754 27.3751 33.0004 26.5251 33.0004 25.5001V19.0938L36.5166 17.9213L40.0691 16.7501L36.5154 15.5776L20.8904 10.3438L20.5004 10.2251ZM20.5004 12.8438L32.2191 16.7501L20.5004 20.6563L8.78164 16.7501L20.5004 12.8438ZM10.5004 19.9538L20.1104 23.1563L20.5004 23.2738L20.8916 23.1551L30.5004 19.9526V25.5001C30.5004 25.5126 30.5054 25.6576 30.1091 25.9688C29.7141 26.2813 29.0054 26.6751 28.0779 26.9851C26.2254 27.6013 23.4941 28.0001 20.5004 28.0001C17.5066 28.0001 14.7754 27.6026 12.9216 26.9838C11.9966 26.6751 11.2866 26.2801 10.8916 25.9688C10.4941 25.6563 10.5004 25.5126 10.5004 25.5001V19.9526V19.9538Z" fill="#6247AA"/>
</g>
<defs>
<clipPath id="clip0_623_1603">
<rect width="40" height="40" fill="white" transform="translate(0.5 0.5)"/>
</clipPath>
</defs>
</svg>
