<svg width="300" height="301" viewBox="0 0 300 301" fill="none" xmlns="http://www.w3.org/2000/svg">
<path d="M166.667 300.5V267.167H200V300.5H166.667ZM133.333 267.167V183.833H166.667V267.167H133.333ZM266.667 217.167V150.5H300V217.167H266.667ZM233.333 150.5V117.167H266.667V150.5H233.333ZM33.3333 183.833V150.5H66.6667V183.833H33.3333ZM0 150.5V117.167H33.3333V150.5H0ZM150 33.8333V0.5H183.333V33.8333H150ZM25 75.5H75V25.5H25V75.5ZM0 100.5V0.5H100V100.5H0ZM25 275.5H75V225.5H25V275.5ZM0 300.5V200.5H100V300.5H0ZM225 75.5H275V25.5H225V75.5ZM200 100.5V0.5H300V100.5H200ZM233.333 300.5V250.5H200V217.167H266.667V267.167H300V300.5H233.333ZM166.667 183.833V150.5H233.333V183.833H166.667ZM100 183.833V150.5H66.6667V117.167H166.667V150.5H133.333V183.833H100ZM116.667 100.5V33.8333H150V67.1667H183.333V100.5H116.667ZM37.5 63V38H62.5V63H37.5ZM37.5 263V238H62.5V263H37.5ZM237.5 63V38H262.5V63H237.5Z" fill="black"/>
</svg>
